<svg width="53" height="45" xmlns="http://www.w3.org/2000/svg"><g fill="none" fill-rule="evenodd"><path d="M41.389 14.722c3.389 0 6.555 1.111 9.055 3.056 1.612-5.334-.166-11.445-5.444-14.89-5.222-3.444-12.278-2.444-16.722 2L25.5 7.668l-3-3C16.722-1.111 6.944-.39 2.167 6.777c-3.445 5.223-2.445 12.279 2 16.667l20.11 20.167a1.778 1.778 0 002.556 0L30.444 40a14.943 14.943 0 01-4.055-10.222c0-8.278 6.722-15.056 15-15.056z" fill="#FDBA4D" fill-rule="nonzero"/><path d="M2.999 7.332c-1.57 2.38-2.133 5.18-1.808 7.887a12.72 12.72 0 003.678 7.514l20.117 20.172c.16.16.363.248.57.248a.81.81 0 00.57-.249l2.947-2.947a15.926 15.926 0 01-3.684-10.18c0-4.417 1.795-8.434 4.695-11.345 2.896-2.906 6.894-4.71 11.305-4.71 3.08 0 5.986.862 8.428 2.397a12.234 12.234 0 00-.534-6.387c-.856-2.34-2.464-4.462-4.83-6.006-2.387-1.575-5.186-2.138-7.9-1.813a12.907 12.907 0 00-7.568 3.683L25.5 9.081l-3.707-3.707a12.13 12.13 0 00-9.858-3.499c-3.44.357-6.752 2.181-8.936 5.457z" stroke="#F99D33" stroke-width="2"/><path d="M41.389 18.278c-6.333 0-11.5 5.11-11.5 11.5 0 6.389 5.111 11.5 11.5 11.5s11.5-5.111 11.5-11.5c0-6.39-5.111-11.5-11.5-11.5zm5.778 12.778a.617.617 0 01-.611.61h-3.334V35a.617.617 0 01-.61.611h-2.5A.617.617 0 0139.5 35v-3.333h-3.333a.617.617 0 01-.611-.611v-2.5c0-.334.277-.612.61-.612H39.5v-3.333c0-.333.278-.611.611-.611h2.5c.333 0 .611.278.611.611v3.333h3.334c.333 0 .61.278.61.612v2.5z" fill="#D63310" fill-rule="nonzero"/></g></svg>